# xmcd CD database file
#
# Track frame offsets:
#	182
#	15712
#	27875
#	43437
#	58350
#	74637
#	88087
#	100262
#	115462
#	129512
#	141237
#	150900
#	166262
#	182750
#	197637
#	212175
#	223887
#	242925
#	256512
#
# Disc length: 3621 seconds
#
# Revision: 0
# Processed by: cddbd v1.5.1PL0 Copyright (c) Steve Scherf et al.
# Submitted via: CDex 1.51
#
DISCID=210e2313
DTITLE=III 28 Woody Herman - At the Woodchopper's Ball
DYEAR=1991
DGENRE=Jazz
TTITLE0=Woodchopper's Ball
TTITLE1=Chip's Boogie - Woogie
TTITLE2=Blue Flame
TTITLE3=Four Five Times
TTITLE4=Do Nothin' Till You Hear From Me
TTITLE5=Somebody Loves Me
TTITLE6=1 - 2 - 3 - 4 - Jump 
TTITLE7=Red Top
TTITLE8=Caldonia
TTITLE9=Mean to Me
TTITLE10="C" Jam Blues
TTITLE11=Steps
TTITLE12=Someday Sweetheart
TTITLE13=Four Brothers
TTITLE14=Early Autumn
TTITLE15=We, the People Bop
TTITLE16=Tiny's Blues
TTITLE17=Man Don't Be Ridicolous
TTITLE18=Rapsody in Wood
EXTD=YEAR: 1991
EXTT0=
EXTT1=
EXTT2=
EXTT3=
EXTT4=
EXTT5=
EXTT6=
EXTT7=
EXTT8=
EXTT9=
EXTT10=
EXTT11=
EXTT12=
EXTT13=
EXTT14=
EXTT15=
EXTT16=
EXTT17=
EXTT18=
PLAYORDER=
